<mxfile host="app.diagrams.net" modified="2020-09-25T12:48:30.653Z" agent="5.0 (Macintosh; Intel Mac OS X 10_15_6) AppleWebKit/605.1.15 (KHTML, like Gecko) Version/14.0 Safari/605.1.15" etag="0bZgJdunUIw6qzqiUuyf" version="13.7.5" type="github">
  <diagram id="By7eRW-PqHJ4lmLYHL1X" name="Page-1">
    <mxGraphModel dx="2148" dy="882" grid="1" gridSize="10" guides="1" tooltips="1" connect="1" arrows="1" fold="1" page="1" pageScale="1" pageWidth="850" pageHeight="1100" math="0" shadow="0">
      <root>
        <mxCell id="0" />
        <mxCell id="1" parent="0" />
        <mxCell id="aRz6TqTrNCgJnmsZP0aM-2" value="&lt;font style=&quot;font-size: 15px&quot;&gt;API&lt;br&gt;GATEWAY&lt;br&gt;(NGNIX)&lt;/font&gt;" style="rounded=0;whiteSpace=wrap;html=1;" vertex="1" parent="1">
          <mxGeometry x="130" y="240" width="100" height="210" as="geometry" />
        </mxCell>
        <mxCell id="aRz6TqTrNCgJnmsZP0aM-3" value="&lt;font style=&quot;font-size: 15px&quot;&gt;Authentication Middleware Backend&lt;br&gt;parking-auth-app&lt;br&gt;(Nest JS/Node JS)&lt;/font&gt;" style="rounded=0;whiteSpace=wrap;html=1;" vertex="1" parent="1">
          <mxGeometry x="700" y="270" width="260" height="100" as="geometry" />
        </mxCell>
        <mxCell id="aRz6TqTrNCgJnmsZP0aM-4" value="&lt;font style=&quot;font-size: 15px&quot;&gt;Admin Backend&lt;br&gt;parking-auth-app&lt;br&gt;(Nest JS/Node JS)&lt;/font&gt;" style="rounded=0;whiteSpace=wrap;html=1;" vertex="1" parent="1">
          <mxGeometry x="370" y="195" width="190" height="80" as="geometry" />
        </mxCell>
        <mxCell id="aRz6TqTrNCgJnmsZP0aM-7" value="" style="aspect=fixed;pointerEvents=1;shadow=0;dashed=0;html=1;strokeColor=none;labelPosition=center;verticalLabelPosition=bottom;verticalAlign=top;align=center;fillColor=#00188D;shape=mxgraph.azure.computer" vertex="1" parent="1">
          <mxGeometry x="-98.33" y="310" width="83.33" height="75" as="geometry" />
        </mxCell>
        <mxCell id="aRz6TqTrNCgJnmsZP0aM-10" value="&lt;font style=&quot;font-size: 15px&quot;&gt;Client (Frontend Apps)&lt;/font&gt;" style="text;html=1;align=center;verticalAlign=middle;resizable=0;points=[];autosize=1;" vertex="1" parent="1">
          <mxGeometry x="-140" y="405" width="170" height="20" as="geometry" />
        </mxCell>
        <mxCell id="aRz6TqTrNCgJnmsZP0aM-11" value="&lt;font style=&quot;font-size: 15px&quot;&gt;Admin Backend&lt;br&gt;parking-auth-app&lt;br&gt;(Laravel/PHP)&lt;/font&gt;" style="rounded=0;whiteSpace=wrap;html=1;" vertex="1" parent="1">
          <mxGeometry x="360" y="425" width="190" height="80" as="geometry" />
        </mxCell>
        <mxCell id="aRz6TqTrNCgJnmsZP0aM-12" value="Mongo DB" style="shape=datastore;whiteSpace=wrap;html=1;" vertex="1" parent="1">
          <mxGeometry x="700" y="580" width="130" height="90" as="geometry" />
        </mxCell>
        <mxCell id="aRz6TqTrNCgJnmsZP0aM-13" value="" style="endArrow=classic;html=1;entryX=0;entryY=0.25;entryDx=0;entryDy=0;exitX=1;exitY=0.25;exitDx=0;exitDy=0;" edge="1" parent="1" source="aRz6TqTrNCgJnmsZP0aM-4" target="aRz6TqTrNCgJnmsZP0aM-3">
          <mxGeometry width="50" height="50" relative="1" as="geometry">
            <mxPoint x="540" y="260" as="sourcePoint" />
            <mxPoint x="590" y="210" as="targetPoint" />
          </mxGeometry>
        </mxCell>
        <mxCell id="aRz6TqTrNCgJnmsZP0aM-14" value="" style="endArrow=classic;html=1;exitX=1.01;exitY=0.21;exitDx=0;exitDy=0;exitPerimeter=0;entryX=0;entryY=0.5;entryDx=0;entryDy=0;" edge="1" parent="1" source="aRz6TqTrNCgJnmsZP0aM-2" target="aRz6TqTrNCgJnmsZP0aM-4">
          <mxGeometry width="50" height="50" relative="1" as="geometry">
            <mxPoint x="290" y="320" as="sourcePoint" />
            <mxPoint x="340" y="270" as="targetPoint" />
          </mxGeometry>
        </mxCell>
        <mxCell id="aRz6TqTrNCgJnmsZP0aM-15" value="" style="endArrow=classic;html=1;exitX=1;exitY=0.686;exitDx=0;exitDy=0;exitPerimeter=0;entryX=0;entryY=0.5;entryDx=0;entryDy=0;" edge="1" parent="1" source="aRz6TqTrNCgJnmsZP0aM-2" target="aRz6TqTrNCgJnmsZP0aM-11">
          <mxGeometry width="50" height="50" relative="1" as="geometry">
            <mxPoint x="281" y="294.0999999999999" as="sourcePoint" />
            <mxPoint x="370" y="265" as="targetPoint" />
          </mxGeometry>
        </mxCell>
        <mxCell id="aRz6TqTrNCgJnmsZP0aM-16" value="HTTP" style="text;html=1;align=center;verticalAlign=middle;resizable=0;points=[];autosize=1;" vertex="1" parent="1">
          <mxGeometry x="280" y="400" width="50" height="20" as="geometry" />
        </mxCell>
        <mxCell id="aRz6TqTrNCgJnmsZP0aM-17" value="HTTP" style="text;html=1;align=center;verticalAlign=middle;resizable=0;points=[];autosize=1;" vertex="1" parent="1">
          <mxGeometry x="260" y="230" width="50" height="20" as="geometry" />
        </mxCell>
        <mxCell id="aRz6TqTrNCgJnmsZP0aM-19" value="" style="endArrow=classic;startArrow=classic;html=1;exitX=1.012;exitY=0.373;exitDx=0;exitDy=0;exitPerimeter=0;entryX=0;entryY=0.467;entryDx=0;entryDy=0;entryPerimeter=0;" edge="1" parent="1" source="aRz6TqTrNCgJnmsZP0aM-7" target="aRz6TqTrNCgJnmsZP0aM-2">
          <mxGeometry width="50" height="50" relative="1" as="geometry">
            <mxPoint x="30" y="340" as="sourcePoint" />
            <mxPoint x="80" y="290" as="targetPoint" />
          </mxGeometry>
        </mxCell>
        <mxCell id="aRz6TqTrNCgJnmsZP0aM-20" value="HTTP" style="text;html=1;align=center;verticalAlign=middle;resizable=0;points=[];autosize=1;" vertex="1" parent="1">
          <mxGeometry x="610" y="270" width="50" height="20" as="geometry" />
        </mxCell>
        <mxCell id="aRz6TqTrNCgJnmsZP0aM-21" value="" style="endArrow=classic;html=1;exitX=0.008;exitY=0.64;exitDx=0;exitDy=0;entryX=1;entryY=0.75;entryDx=0;entryDy=0;exitPerimeter=0;" edge="1" parent="1" source="aRz6TqTrNCgJnmsZP0aM-3" target="aRz6TqTrNCgJnmsZP0aM-4">
          <mxGeometry width="50" height="50" relative="1" as="geometry">
            <mxPoint x="610" y="370" as="sourcePoint" />
            <mxPoint x="660" y="320" as="targetPoint" />
          </mxGeometry>
        </mxCell>
        <mxCell id="aRz6TqTrNCgJnmsZP0aM-22" value="" style="endArrow=classic;html=1;entryX=0.142;entryY=1.03;entryDx=0;entryDy=0;exitX=1;exitY=0.25;exitDx=0;exitDy=0;entryPerimeter=0;" edge="1" parent="1" source="aRz6TqTrNCgJnmsZP0aM-11" target="aRz6TqTrNCgJnmsZP0aM-3">
          <mxGeometry width="50" height="50" relative="1" as="geometry">
            <mxPoint x="560" y="405" as="sourcePoint" />
            <mxPoint x="680" y="475" as="targetPoint" />
          </mxGeometry>
        </mxCell>
        <mxCell id="aRz6TqTrNCgJnmsZP0aM-23" value="" style="endArrow=classic;html=1;exitX=0.535;exitY=1.04;exitDx=0;exitDy=0;exitPerimeter=0;entryX=1;entryY=0.75;entryDx=0;entryDy=0;" edge="1" parent="1" source="aRz6TqTrNCgJnmsZP0aM-3" target="aRz6TqTrNCgJnmsZP0aM-11">
          <mxGeometry width="50" height="50" relative="1" as="geometry">
            <mxPoint x="660" y="470" as="sourcePoint" />
            <mxPoint x="710" y="420" as="targetPoint" />
          </mxGeometry>
        </mxCell>
        <mxCell id="aRz6TqTrNCgJnmsZP0aM-24" value="" style="endArrow=classic;html=1;exitX=0.8;exitY=1.025;exitDx=0;exitDy=0;exitPerimeter=0;entryX=0;entryY=0.3;entryDx=0;entryDy=0;" edge="1" parent="1" source="aRz6TqTrNCgJnmsZP0aM-4" target="aRz6TqTrNCgJnmsZP0aM-12">
          <mxGeometry width="50" height="50" relative="1" as="geometry">
            <mxPoint x="590" y="560" as="sourcePoint" />
            <mxPoint x="640" y="510" as="targetPoint" />
          </mxGeometry>
        </mxCell>
        <mxCell id="aRz6TqTrNCgJnmsZP0aM-25" value="" style="endArrow=classic;html=1;exitX=0.5;exitY=1;exitDx=0;exitDy=0;entryX=0;entryY=0.5;entryDx=0;entryDy=0;" edge="1" parent="1" source="aRz6TqTrNCgJnmsZP0aM-11" target="aRz6TqTrNCgJnmsZP0aM-12">
          <mxGeometry width="50" height="50" relative="1" as="geometry">
            <mxPoint x="470" y="530" as="sourcePoint" />
            <mxPoint x="658" y="750" as="targetPoint" />
          </mxGeometry>
        </mxCell>
        <mxCell id="aRz6TqTrNCgJnmsZP0aM-26" value="HTTP" style="text;html=1;align=center;verticalAlign=middle;resizable=0;points=[];autosize=1;" vertex="1" parent="1">
          <mxGeometry x="660" y="405" width="50" height="20" as="geometry" />
        </mxCell>
      </root>
    </mxGraphModel>
  </diagram>
</mxfile>
